<svg id="svg" version="1.1" xmlns="http://www.w3.org/2000/svg" xmlns:xlink="http://www.w3.org/1999/xlink" width="400" height="400" viewBox="0, 0, 400,400"><g id="svgg"><path id="path0" d="M358.467 7.384 C 358.723 7.451,359.143 7.451,359.400 7.384 C 359.657 7.317,359.447 7.262,358.933 7.262 C 358.420 7.262,358.210 7.317,358.467 7.384 M347.136 7.655 C 347.468 7.719,347.948 7.717,348.203 7.650 C 348.458 7.583,348.187 7.531,347.600 7.534 C 347.013 7.537,346.805 7.591,347.136 7.655 M372.000 12.897 C 372.000 12.970,372.360 13.287,372.800 13.600 C 373.240 13.913,373.600 14.110,373.600 14.036 C 373.600 13.963,373.240 13.647,372.800 13.333 C 372.360 13.020,372.000 12.824,372.000 12.897 M375.521 17.049 C 375.853 17.626,376.170 18.052,376.226 17.996 C 376.341 17.881,375.221 16.000,375.037 16.000 C 374.971 16.000,375.189 16.472,375.521 17.049 M118.729 18.867 C 117.915 20.041,117.868 20.178,118.278 20.178 C 118.492 20.178,118.614 20.125,118.549 20.061 C 118.485 19.996,118.665 19.693,118.949 19.388 C 119.411 18.892,119.654 18.133,119.351 18.133 C 119.288 18.133,119.008 18.463,118.729 18.867 M352.727 18.592 C 353.201 18.651,354.041 18.652,354.594 18.595 C 355.147 18.537,354.760 18.489,353.733 18.488 C 352.707 18.486,352.254 18.534,352.727 18.592 M376.276 18.400 C 376.272 18.473,376.568 19.124,376.934 19.845 C 377.301 20.567,377.599 20.987,377.599 20.779 C 377.597 20.435,376.293 18.089,376.276 18.400 M365.107 21.737 C 365.643 22.322,366.333 23.220,366.640 23.733 C 366.947 24.247,367.198 24.535,367.199 24.373 C 367.200 23.956,365.813 22.121,364.903 21.337 C 364.357 20.867,364.416 20.983,365.107 21.737 M116.267 24.267 C 115.822 25.147,115.519 25.867,115.592 25.867 C 115.666 25.867,116.089 25.147,116.533 24.267 C 116.978 23.387,117.281 22.667,117.208 22.667 C 117.134 22.667,116.711 23.387,116.267 24.267 M326.800 24.410 C 325.723 24.903,326.367 24.903,327.503 24.410 C 327.996 24.196,328.220 24.026,328.000 24.032 C 327.780 24.038,327.240 24.208,326.800 24.410 M367.771 26.400 C 367.771 26.620,367.874 27.040,368.000 27.333 C 368.144 27.670,368.229 27.719,368.229 27.467 C 368.229 27.247,368.126 26.827,368.000 26.533 C 367.856 26.197,367.771 26.148,367.771 26.400 M379.010 27.867 C 379.012 28.600,379.063 28.868,379.125 28.463 C 379.186 28.058,379.184 27.458,379.121 27.130 C 379.058 26.802,379.008 27.133,379.010 27.867 M317.200 28.143 C 316.760 28.344,316.580 28.510,316.800 28.512 C 317.020 28.513,317.500 28.343,317.867 28.133 C 318.710 27.651,318.259 27.658,317.200 28.143 M112.933 30.667 C 112.416 31.693,112.053 32.533,112.127 32.533 C 112.200 32.533,112.683 31.693,113.200 30.667 C 113.717 29.640,114.080 28.800,114.007 28.800 C 113.933 28.800,113.450 29.640,112.933 30.667 M289.296 30.949 L 288.667 31.498 289.467 31.030 C 290.520 30.413,290.535 30.400,290.207 30.400 C 290.052 30.400,289.642 30.647,289.296 30.949 M379.262 32.800 C 379.262 33.313,379.317 33.523,379.384 33.267 C 379.451 33.010,379.451 32.590,379.384 32.333 C 379.317 32.077,379.262 32.287,379.262 32.800 M284.933 33.333 C 284.493 33.625,284.253 33.861,284.400 33.859 C 284.667 33.855,286.117 32.816,285.867 32.808 C 285.793 32.805,285.373 33.042,284.933 33.333 M304.267 33.867 C 303.753 34.148,303.453 34.378,303.600 34.378 C 303.747 34.378,304.287 34.148,304.800 33.867 C 305.313 33.586,305.613 33.356,305.467 33.356 C 305.320 33.356,304.780 33.586,304.267 33.867 M277.867 37.351 C 276.913 37.922,276.225 38.392,276.337 38.395 C 276.639 38.402,279.442 36.789,279.616 36.508 C 279.819 36.179,279.827 36.175,277.867 37.351 M367.360 43.493 C 367.262 44.104,367.234 44.657,367.298 44.720 C 367.362 44.784,367.498 44.340,367.600 43.733 C 367.702 43.127,367.730 42.575,367.662 42.506 C 367.594 42.438,367.458 42.882,367.360 43.493 M262.800 46.400 C 262.360 46.691,262.120 46.928,262.267 46.926 C 262.534 46.921,263.984 45.882,263.733 45.874 C 263.660 45.872,263.240 46.109,262.800 46.400 M376.952 47.086 C 376.854 47.477,376.825 47.848,376.888 47.911 C 376.951 47.973,377.083 47.705,377.181 47.314 C 377.279 46.923,377.308 46.552,377.245 46.489 C 377.182 46.427,377.050 46.695,376.952 47.086 M273.000 50.019 C 272.003 50.560,272.064 50.785,273.067 50.267 C 273.507 50.039,273.867 49.796,273.867 49.726 C 273.867 49.555,273.838 49.565,273.000 50.019 M255.931 50.644 C 254.835 51.346,254.684 51.594,255.650 51.102 C 256.117 50.865,256.574 50.550,256.665 50.402 C 256.879 50.056,256.815 50.077,255.931 50.644 M365.364 51.778 C 365.347 52.023,365.264 52.443,365.180 52.712 C 365.034 53.175,365.042 53.175,365.331 52.725 C 365.499 52.464,365.582 52.044,365.516 51.792 C 365.407 51.379,365.392 51.377,365.364 51.778 M375.366 52.677 C 375.275 52.915,375.210 53.310,375.223 53.555 C 375.236 53.800,375.352 53.646,375.481 53.213 C 375.732 52.372,375.643 51.955,375.366 52.677 M364.166 55.610 C 364.075 55.849,364.010 56.244,364.023 56.488 C 364.036 56.733,364.152 56.579,364.281 56.147 C 364.532 55.305,364.443 54.889,364.166 55.610 M99.385 57.747 C 98.406 59.743,98.497 59.979,99.497 58.040 C 99.940 57.182,100.258 56.435,100.203 56.381 C 100.148 56.326,99.780 56.941,99.385 57.747 M372.310 61.745 C 371.863 62.725,371.948 62.935,372.432 62.043 C 372.657 61.627,372.792 61.236,372.731 61.175 C 372.670 61.114,372.480 61.371,372.310 61.745 M250.867 62.820 C 249.488 63.722,249.602 63.905,251.000 63.034 C 252.345 62.196,252.430 62.129,252.111 62.149 C 251.977 62.158,251.417 62.459,250.867 62.820 M361.394 63.800 C 360.940 65.056,361.003 65.396,361.484 64.287 C 361.702 63.785,361.844 63.266,361.800 63.135 C 361.757 63.003,361.574 63.303,361.394 63.800 M235.600 63.890 L 234.800 64.577 235.667 64.004 C 236.143 63.688,236.533 63.379,236.533 63.315 C 236.533 63.116,236.420 63.185,235.600 63.890 M371.510 63.878 C 371.063 64.859,371.148 65.068,371.632 64.176 C 371.857 63.760,371.992 63.370,371.931 63.309 C 371.870 63.248,371.680 63.504,371.510 63.878 M96.181 64.412 C 95.555 65.726,95.643 65.950,96.298 64.708 C 96.595 64.144,96.791 63.636,96.734 63.578 C 96.676 63.521,96.427 63.896,96.181 64.412 M91.333 64.800 C 91.106 65.240,90.980 65.600,91.053 65.600 C 91.126 65.600,91.372 65.240,91.600 64.800 C 91.828 64.360,91.954 64.000,91.880 64.000 C 91.807 64.000,91.561 64.360,91.333 64.800 M370.733 65.933 C 370.446 66.717,370.454 66.750,370.808 66.282 C 371.147 65.835,371.347 65.067,371.125 65.067 C 371.084 65.067,370.908 65.457,370.733 65.933 M360.577 66.011 C 360.130 66.992,360.215 67.201,360.698 66.310 C 360.924 65.893,361.059 65.503,360.998 65.442 C 360.937 65.381,360.747 65.637,360.577 66.011 M245.264 66.233 C 243.983 67.021,243.626 67.392,244.667 66.854 C 245.503 66.422,246.630 65.617,246.400 65.617 C 246.327 65.617,245.816 65.894,245.264 66.233 M90.267 66.667 C 90.039 67.107,89.913 67.467,89.986 67.467 C 90.060 67.467,90.306 67.107,90.533 66.667 C 90.761 66.227,90.887 65.867,90.814 65.867 C 90.740 65.867,90.494 66.227,90.267 66.667 M93.519 70.013 C 92.540 72.010,92.630 72.246,93.631 70.307 C 94.073 69.449,94.391 68.702,94.336 68.647 C 94.282 68.593,93.914 69.208,93.519 70.013 M369.319 69.237 C 369.172 69.624,369.101 69.990,369.162 70.051 C 369.222 70.111,369.399 69.794,369.555 69.347 C 369.902 68.352,369.693 68.255,369.319 69.237 M239.822 69.550 C 238.335 70.509,237.995 70.917,239.333 70.139 C 240.318 69.565,241.347 68.777,241.057 68.817 C 240.989 68.827,240.433 69.157,239.822 69.550 M225.733 70.557 L 224.933 71.244 225.800 70.671 C 226.277 70.355,226.667 70.045,226.667 69.982 C 226.667 69.782,226.554 69.852,225.733 70.557 M87.867 70.933 C 87.639 71.373,87.513 71.733,87.586 71.733 C 87.660 71.733,87.906 71.373,88.133 70.933 C 88.361 70.493,88.487 70.133,88.414 70.133 C 88.340 70.133,88.094 70.493,87.867 70.933 M86.800 72.800 C 86.572 73.240,86.446 73.600,86.520 73.600 C 86.593 73.600,86.839 73.240,87.067 72.800 C 87.294 72.360,87.420 72.000,87.347 72.000 C 87.274 72.000,87.028 72.360,86.800 72.800 M356.594 75.794 C 355.833 77.575,355.252 79.074,355.303 79.126 C 355.355 79.177,356.021 77.764,356.785 75.985 C 357.548 74.206,358.129 72.707,358.076 72.653 C 358.022 72.600,357.356 74.013,356.594 75.794 M366.048 76.679 C 365.421 77.993,365.509 78.216,366.164 76.975 C 366.462 76.411,366.658 75.903,366.600 75.845 C 366.543 75.787,366.294 76.163,366.048 76.679 M83.867 78.133 C 83.639 78.573,83.513 78.933,83.586 78.933 C 83.660 78.933,83.906 78.573,84.133 78.133 C 84.361 77.693,84.487 77.333,84.414 77.333 C 84.340 77.333,84.094 77.693,83.867 78.133 M89.514 78.546 C 88.888 79.859,88.976 80.083,89.631 78.842 C 89.929 78.278,90.125 77.769,90.067 77.712 C 90.009 77.654,89.761 78.029,89.514 78.546 M225.667 78.431 C 224.758 79.013,224.464 79.404,225.267 78.962 C 225.879 78.626,226.837 77.885,226.667 77.880 C 226.593 77.877,226.143 78.125,225.667 78.431 M354.581 80.412 C 353.955 81.726,354.043 81.950,354.698 80.708 C 354.995 80.144,355.191 79.636,355.134 79.578 C 355.076 79.521,354.827 79.896,354.581 80.412 M82.533 80.533 C 82.306 80.973,82.180 81.333,82.253 81.333 C 82.326 81.333,82.572 80.973,82.800 80.533 C 83.028 80.093,83.154 79.733,83.080 79.733 C 83.007 79.733,82.761 80.093,82.533 80.533 M222.733 80.297 C 221.824 80.879,221.530 81.270,222.333 80.829 C 222.945 80.493,223.904 79.751,223.733 79.746 C 223.660 79.744,223.210 79.992,222.733 80.297 M88.043 81.745 C 87.597 82.725,87.682 82.935,88.165 82.043 C 88.390 81.627,88.525 81.236,88.464 81.175 C 88.403 81.114,88.214 81.371,88.043 81.745 M219.800 82.164 C 218.891 82.746,218.597 83.137,219.400 82.696 C 220.012 82.359,220.970 81.618,220.800 81.613 C 220.727 81.611,220.277 81.859,219.800 82.164 M81.200 82.933 C 80.972 83.373,80.846 83.733,80.920 83.733 C 80.993 83.733,81.239 83.373,81.467 82.933 C 81.694 82.493,81.820 82.133,81.747 82.133 C 81.674 82.133,81.428 82.493,81.200 82.933 M362.652 83.905 C 362.505 84.293,362.309 84.731,362.217 84.880 C 362.126 85.028,362.178 85.071,362.333 84.975 C 362.626 84.794,363.267 83.200,363.046 83.200 C 362.977 83.200,362.799 83.517,362.652 83.905 M86.443 85.211 C 85.997 86.192,86.082 86.401,86.565 85.510 C 86.790 85.093,86.925 84.703,86.864 84.642 C 86.803 84.581,86.614 84.837,86.443 85.211 M351.914 86.279 C 351.288 87.593,351.376 87.816,352.031 86.575 C 352.329 86.011,352.525 85.503,352.467 85.445 C 352.409 85.387,352.161 85.763,351.914 86.279 M85.377 87.611 C 84.930 88.592,85.015 88.801,85.498 87.910 C 85.724 87.493,85.859 87.103,85.798 87.042 C 85.737 86.981,85.547 87.237,85.377 87.611 M77.733 89.333 C 77.506 89.773,77.380 90.133,77.453 90.133 C 77.526 90.133,77.772 89.773,78.000 89.333 C 78.228 88.893,78.354 88.533,78.280 88.533 C 78.207 88.533,77.961 88.893,77.733 89.333 M196.667 90.823 L 195.867 91.511 196.733 90.937 C 197.210 90.622,197.600 90.312,197.600 90.249 C 197.600 90.049,197.487 90.118,196.667 90.823 M75.733 93.067 C 75.434 93.653,75.249 94.133,75.322 94.133 C 75.396 94.133,75.701 93.653,76.000 93.067 C 76.299 92.480,76.484 92.000,76.411 92.000 C 76.338 92.000,76.033 92.480,75.733 93.067 M82.710 93.478 C 82.263 94.459,82.348 94.668,82.832 93.776 C 83.057 93.360,83.192 92.970,83.131 92.909 C 83.070 92.848,82.880 93.104,82.710 93.478 M81.643 95.878 C 81.197 96.859,81.282 97.068,81.765 96.176 C 81.990 95.760,82.125 95.370,82.064 95.309 C 82.003 95.248,81.814 95.504,81.643 95.878 M346.521 97.358 C 346.286 97.812,346.141 98.230,346.199 98.288 C 346.257 98.346,346.504 97.975,346.748 97.463 C 347.296 96.313,347.106 96.225,346.521 97.358 M354.933 98.933 C 354.634 99.520,354.449 100.000,354.522 100.000 C 354.596 100.000,354.901 99.520,355.200 98.933 C 355.499 98.347,355.684 97.867,355.611 97.867 C 355.538 97.867,355.233 98.347,354.933 98.933 M185.200 99.090 L 184.400 99.777 185.267 99.204 C 185.743 98.888,186.133 98.579,186.133 98.515 C 186.133 98.316,186.020 98.385,185.200 99.090 M181.333 101.899 C 180.404 102.714,180.404 102.715,181.259 102.146 C 181.731 101.832,182.188 101.461,182.274 101.321 C 182.532 100.905,182.318 101.036,181.333 101.899 M351.867 104.533 C 351.639 104.973,351.513 105.333,351.586 105.333 C 351.660 105.333,351.906 104.973,352.133 104.533 C 352.361 104.093,352.487 103.733,352.414 103.733 C 352.340 103.733,352.094 104.093,351.867 104.533 M176.133 105.757 L 175.333 106.444 176.200 105.871 C 176.677 105.555,177.067 105.245,177.067 105.182 C 177.067 104.982,176.954 105.052,176.133 105.757 M68.267 107.200 C 67.967 107.787,67.782 108.267,67.856 108.267 C 67.929 108.267,68.234 107.787,68.533 107.200 C 68.833 106.613,69.018 106.133,68.944 106.133 C 68.871 106.133,68.566 106.613,68.267 107.200 M76.843 106.811 C 76.397 107.792,76.482 108.001,76.965 107.110 C 77.190 106.693,77.325 106.303,77.264 106.242 C 77.203 106.181,77.014 106.437,76.843 106.811 M182.000 107.357 L 181.200 108.044 182.067 107.471 C 182.543 107.155,182.933 106.845,182.933 106.782 C 182.933 106.582,182.820 106.652,182.000 107.357 M339.200 111.467 C 338.901 112.053,338.716 112.533,338.789 112.533 C 338.862 112.533,339.167 112.053,339.467 111.467 C 339.766 110.880,339.951 110.400,339.878 110.400 C 339.804 110.400,339.499 110.880,339.200 111.467 M348.133 111.200 C 347.906 111.640,347.780 112.000,347.853 112.000 C 347.926 112.000,348.172 111.640,348.400 111.200 C 348.628 110.760,348.754 110.400,348.680 110.400 C 348.607 110.400,348.361 110.760,348.133 111.200 M66.053 111.449 C 65.804 111.871,65.600 112.317,65.601 112.441 C 65.602 112.565,65.848 112.263,66.149 111.770 C 66.449 111.277,66.653 110.830,66.600 110.778 C 66.548 110.726,66.302 111.028,66.053 111.449 M345.385 115.943 C 344.210 117.966,342.986 120.066,342.665 120.610 C 342.344 121.155,342.142 121.600,342.216 121.600 C 342.316 121.600,346.336 114.848,347.654 112.467 C 347.715 112.357,347.710 112.267,347.643 112.267 C 347.576 112.267,346.560 113.921,345.385 115.943 M337.786 114.116 C 337.537 114.537,337.334 114.984,337.334 115.108 C 337.335 115.232,337.581 114.930,337.882 114.437 C 338.183 113.943,338.386 113.497,338.334 113.445 C 338.281 113.393,338.035 113.695,337.786 114.116 M64.121 115.225 C 63.886 115.678,63.741 116.097,63.799 116.155 C 63.857 116.213,64.104 115.841,64.348 115.330 C 64.896 114.180,64.706 114.092,64.121 115.225 M334.000 121.067 C 333.772 121.507,333.646 121.867,333.720 121.867 C 333.793 121.867,334.039 121.507,334.267 121.067 C 334.494 120.627,334.620 120.267,334.547 120.267 C 334.474 120.267,334.228 120.627,334.000 121.067 M340.944 123.533 C 340.402 124.450,340.133 125.020,340.345 124.800 C 340.806 124.323,342.239 121.867,342.057 121.867 C 341.986 121.867,341.486 122.617,340.944 123.533 M69.910 123.078 C 69.463 124.059,69.548 124.268,70.032 123.376 C 70.257 122.960,70.392 122.570,70.331 122.509 C 70.270 122.448,70.080 122.704,69.910 123.078 M152.933 123.090 L 152.133 123.777 153.000 123.204 C 153.477 122.888,153.867 122.579,153.867 122.515 C 153.867 122.316,153.754 122.385,152.933 123.090 M69.110 124.945 C 68.663 125.925,68.748 126.135,69.232 125.243 C 69.457 124.827,69.592 124.436,69.531 124.375 C 69.470 124.314,69.280 124.571,69.110 124.945 M331.706 125.133 C 331.534 125.463,331.090 126.273,330.719 126.933 C 330.349 127.593,330.172 128.013,330.327 127.867 C 330.715 127.499,332.353 124.533,332.168 124.533 C 332.086 124.533,331.878 124.803,331.706 125.133 M339.369 126.200 L 338.889 127.067 339.438 126.400 C 339.926 125.809,340.142 125.333,339.924 125.333 C 339.882 125.333,339.632 125.723,339.369 126.200 M338.032 128.333 C 336.745 130.363,335.472 132.606,335.801 132.267 C 336.263 131.788,338.708 127.733,338.534 127.733 C 338.467 127.733,338.241 128.003,338.032 128.333 M67.400 129.141 C 66.759 130.696,66.821 131.073,67.480 129.622 C 67.774 128.973,67.981 128.345,67.941 128.226 C 67.900 128.107,67.657 128.518,67.400 129.141 M142.933 130.699 C 142.004 131.514,142.004 131.515,142.859 130.946 C 143.331 130.632,143.788 130.261,143.874 130.121 C 144.132 129.705,143.918 129.836,142.933 130.699 M66.392 131.481 C 66.231 131.783,66.138 132.148,66.187 132.293 C 66.235 132.438,66.412 132.191,66.581 131.745 C 66.931 130.817,66.826 130.670,66.392 131.481 M146.800 131.890 L 146.000 132.577 146.867 132.004 C 147.343 131.688,147.733 131.379,147.733 131.315 C 147.733 131.116,147.620 131.185,146.800 131.890 M332.796 136.867 C 332.329 137.637,332.120 138.087,332.332 137.867 C 332.812 137.369,333.958 135.467,333.778 135.467 C 333.705 135.467,333.263 136.097,332.796 136.867 M63.914 137.746 C 63.668 138.262,63.469 138.831,63.473 139.009 C 63.476 139.187,63.718 138.805,64.011 138.160 C 64.645 136.763,64.559 136.394,63.914 137.746 M323.333 139.733 C 323.106 140.173,322.980 140.533,323.053 140.533 C 323.126 140.533,323.372 140.173,323.600 139.733 C 323.828 139.293,323.954 138.933,323.880 138.933 C 323.807 138.933,323.561 139.293,323.333 139.733 M131.600 142.823 L 130.800 143.511 131.667 142.937 C 132.143 142.622,132.533 142.312,132.533 142.249 C 132.533 142.049,132.420 142.118,131.600 142.823 M128.667 144.957 L 127.867 145.644 128.733 145.071 C 129.210 144.755,129.600 144.445,129.600 144.382 C 129.600 144.182,129.487 144.252,128.667 144.957 M319.749 145.767 C 319.435 146.299,319.222 146.777,319.275 146.831 C 319.328 146.884,319.641 146.449,319.970 145.864 C 320.716 144.535,320.525 144.451,319.749 145.767 M327.568 145.133 C 326.650 146.691,326.591 146.824,327.058 146.267 C 327.600 145.621,328.067 144.800,327.892 144.800 C 327.822 144.800,327.676 144.950,327.568 145.133 M325.702 148.067 C 324.784 149.624,324.724 149.757,325.191 149.200 C 325.733 148.555,326.200 147.733,326.025 147.733 C 325.955 147.733,325.810 147.883,325.702 148.067 M184.800 149.099 C 161.966 152.167,146.858 161.031,137.938 176.595 C 126.349 196.817,132.988 228.076,151.200 239.041 C 152.596 239.881,152.327 239.615,149.094 236.955 C 129.938 221.197,130.323 185.538,149.857 166.132 C 158.321 157.724,167.622 153.137,182.533 150.017 C 187.846 148.905,188.643 148.582,184.800 149.099 M323.302 151.800 C 322.384 153.357,322.324 153.490,322.791 152.933 C 323.333 152.288,323.800 151.467,323.625 151.467 C 323.555 151.467,323.410 151.617,323.302 151.800 M56.483 156.885 C 56.240 157.498,55.972 158.300,55.886 158.667 L 55.731 159.333 56.029 158.667 C 56.772 157.005,57.141 155.986,57.038 155.882 C 56.976 155.820,56.726 156.271,56.483 156.885 M319.631 157.467 C 319.394 157.833,319.006 158.463,318.768 158.867 L 318.337 159.600 318.873 158.951 C 319.507 158.184,320.347 156.800,320.179 156.800 C 320.114 156.800,319.868 157.100,319.631 157.467 M42.787 159.491 C 42.553 159.945,42.408 160.364,42.466 160.421 C 42.524 160.479,42.771 160.108,43.015 159.597 C 43.563 158.447,43.373 158.359,42.787 159.491 M54.443 162.278 C 53.997 163.259,54.082 163.468,54.565 162.576 C 54.790 162.160,54.925 161.770,54.864 161.709 C 54.803 161.648,54.614 161.904,54.443 162.278 M314.790 164.867 C 314.379 165.490,314.213 165.859,314.421 165.687 C 314.822 165.356,315.843 163.733,315.651 163.733 C 315.588 163.733,315.201 164.243,314.790 164.867 M53.377 165.211 C 53.206 165.586,53.071 166.036,53.077 166.213 C 53.083 166.389,53.265 166.125,53.481 165.626 C 53.937 164.576,53.840 164.194,53.377 165.211 M38.925 168.015 C 38.764 168.316,38.672 168.681,38.720 168.826 C 38.768 168.971,38.946 168.725,39.114 168.278 C 39.464 167.350,39.360 167.204,38.925 168.015 M311.057 170.467 C 310.646 171.090,310.480 171.459,310.688 171.287 C 311.088 170.956,312.110 169.333,311.917 169.333 C 311.855 169.333,311.468 169.843,311.057 170.467 M50.443 173.478 C 49.997 174.459,50.082 174.668,50.565 173.776 C 50.790 173.360,50.925 172.970,50.864 172.909 C 50.803 172.848,50.614 173.104,50.443 173.478 M49.898 174.978 C 49.881 175.223,49.798 175.643,49.713 175.912 C 49.568 176.375,49.576 176.375,49.864 175.925 C 50.032 175.664,50.115 175.244,50.049 174.992 C 49.940 174.579,49.925 174.577,49.898 174.978 M35.381 176.412 C 34.755 177.726,34.843 177.950,35.498 176.708 C 35.795 176.144,35.991 175.636,35.934 175.578 C 35.876 175.521,35.627 175.896,35.381 176.412 M158.212 177.336 C 147.885 178.845,144.670 192.908,153.333 198.676 C 163.441 205.404,175.864 194.758,170.651 183.835 C 168.850 180.061,163.440 176.683,159.867 177.102 C 159.720 177.119,158.975 177.224,158.212 177.336 M78.400 181.882 C 76.311 183.600,75.677 184.267,76.134 184.267 C 76.497 184.267,79.444 181.795,79.390 181.535 C 79.359 181.388,79.500 181.206,79.704 181.132 C 79.961 181.038,80.007 181.110,79.853 181.365 C 79.667 181.674,79.705 181.674,80.089 181.362 C 80.340 181.158,80.484 180.929,80.409 180.853 C 80.333 180.778,80.405 180.555,80.568 180.358 C 81.112 179.703,80.686 180.002,78.400 181.882 M301.600 184.400 C 301.146 185.060,300.834 185.600,300.908 185.600 C 300.981 185.600,301.413 185.060,301.867 184.400 C 302.321 183.740,302.632 183.200,302.559 183.200 C 302.486 183.200,302.054 183.740,301.600 184.400 M296.102 184.067 C 295.184 185.624,295.124 185.757,295.591 185.200 C 296.133 184.555,296.600 183.733,296.425 183.733 C 296.355 183.733,296.210 183.883,296.102 184.067 M46.177 185.745 C 45.730 186.725,45.815 186.935,46.298 186.043 C 46.524 185.627,46.659 185.236,46.598 185.175 C 46.537 185.114,46.347 185.371,46.177 185.745 M30.314 188.679 C 29.688 189.993,29.776 190.216,30.431 188.975 C 30.729 188.411,30.925 187.903,30.867 187.845 C 30.809 187.787,30.561 188.163,30.314 188.679 M45.110 188.945 C 44.939 189.319,44.805 189.769,44.810 189.946 C 44.816 190.122,44.998 189.859,45.215 189.360 C 45.670 188.310,45.574 187.927,45.110 188.945 M291.302 191.533 C 290.384 193.091,290.324 193.224,290.791 192.667 C 291.333 192.021,291.800 191.200,291.625 191.200 C 291.555 191.200,291.410 191.350,291.302 191.533 M295.733 192.933 C 295.279 193.593,294.968 194.133,295.041 194.133 C 295.114 194.133,295.546 193.593,296.000 192.933 C 296.454 192.273,296.766 191.733,296.692 191.733 C 296.619 191.733,296.187 192.273,295.733 192.933 M27.648 195.346 C 27.021 196.659,27.109 196.883,27.764 195.642 C 28.062 195.078,28.258 194.569,28.200 194.512 C 28.143 194.454,27.894 194.829,27.648 195.346 M288.481 195.933 C 287.053 198.107,286.877 198.400,287.001 198.400 C 287.117 198.400,287.494 197.863,288.919 195.667 C 289.181 195.263,289.337 194.933,289.266 194.933 C 289.195 194.933,288.842 195.383,288.481 195.933 M26.314 198.812 C 25.688 200.126,25.776 200.350,26.431 199.108 C 26.729 198.544,26.925 198.036,26.867 197.978 C 26.809 197.921,26.561 198.296,26.314 198.812 M290.400 200.533 C 290.087 200.973,289.890 201.333,289.964 201.333 C 290.037 201.333,290.353 200.973,290.667 200.533 C 290.980 200.093,291.176 199.733,291.103 199.733 C 291.030 199.733,290.713 200.093,290.400 200.533 M284.697 201.733 C 284.460 202.100,284.072 202.730,283.835 203.133 L 283.403 203.867 283.940 203.218 C 284.574 202.451,285.414 201.067,285.246 201.067 C 285.181 201.067,284.934 201.367,284.697 201.733 M22.177 209.745 C 21.730 210.725,21.815 210.935,22.298 210.043 C 22.524 209.627,22.659 209.236,22.598 209.175 C 22.537 209.114,22.347 209.371,22.177 209.745 M274.840 216.667 C 273.717 218.353,272.855 219.733,272.926 219.733 C 272.997 219.733,273.876 218.503,274.879 217.000 C 276.978 213.856,277.137 213.600,276.990 213.600 C 276.931 213.600,275.963 214.980,274.840 216.667 M279.467 216.000 C 279.153 216.440,278.957 216.800,279.030 216.800 C 279.104 216.800,279.420 216.440,279.733 216.000 C 280.047 215.560,280.243 215.200,280.170 215.200 C 280.096 215.200,279.780 215.560,279.467 216.000 M19.839 216.316 C 19.678 216.802,19.461 217.440,19.357 217.733 C 19.253 218.027,19.423 217.808,19.734 217.248 C 20.044 216.688,20.261 216.050,20.216 215.831 C 20.171 215.612,20.001 215.831,19.839 216.316 M278.133 217.867 C 277.820 218.307,277.624 218.667,277.697 218.667 C 277.770 218.667,278.087 218.307,278.400 217.867 C 278.713 217.427,278.910 217.067,278.836 217.067 C 278.763 217.067,278.447 217.427,278.133 217.867 M271.857 221.133 C 271.446 221.757,271.280 222.126,271.488 221.954 C 271.888 221.623,272.910 220.000,272.717 220.000 C 272.655 220.000,272.268 220.510,271.857 221.133 M275.467 221.600 C 275.153 222.040,274.957 222.400,275.030 222.400 C 275.104 222.400,275.420 222.040,275.733 221.600 C 276.047 221.160,276.243 220.800,276.170 220.800 C 276.096 220.800,275.780 221.160,275.467 221.600 M269.723 224.333 C 269.312 224.957,269.146 225.326,269.355 225.154 C 269.755 224.823,270.776 223.200,270.584 223.200 C 270.522 223.200,270.135 223.710,269.723 224.333 M16.297 226.426 C 16.134 226.896,16.008 227.472,16.018 227.706 C 16.028 227.941,16.202 227.598,16.406 226.944 C 16.833 225.575,16.743 225.148,16.297 226.426 M272.000 226.400 C 271.687 226.840,271.490 227.200,271.564 227.200 C 271.637 227.200,271.953 226.840,272.267 226.400 C 272.580 225.960,272.776 225.600,272.703 225.600 C 272.630 225.600,272.313 225.960,272.000 226.400 M15.510 229.211 C 15.063 230.192,15.148 230.401,15.632 229.510 C 15.857 229.093,15.992 228.703,15.931 228.642 C 15.870 228.581,15.680 228.837,15.510 229.211 M264.533 232.000 C 264.220 232.440,264.024 232.800,264.097 232.800 C 264.170 232.800,264.487 232.440,264.800 232.000 C 265.113 231.560,265.310 231.200,265.236 231.200 C 265.163 231.200,264.847 231.560,264.533 232.000 M266.400 234.133 C 266.087 234.573,265.890 234.933,265.964 234.933 C 266.037 234.933,266.353 234.573,266.667 234.133 C 266.980 233.693,267.176 233.333,267.103 233.333 C 267.030 233.333,266.713 233.693,266.400 234.133 M264.267 237.067 C 263.953 237.507,263.757 237.867,263.830 237.867 C 263.904 237.867,264.220 237.507,264.533 237.067 C 264.847 236.627,265.043 236.267,264.970 236.267 C 264.896 236.267,264.580 236.627,264.267 237.067 M259.200 239.867 C 258.746 240.527,258.434 241.067,258.508 241.067 C 258.581 241.067,259.013 240.527,259.467 239.867 C 259.921 239.207,260.232 238.667,260.159 238.667 C 260.086 238.667,259.654 239.207,259.200 239.867 M399.200 239.067 C 398.833 239.276,398.638 239.452,398.766 239.457 C 398.894 239.462,398.834 239.672,398.633 239.923 C 398.390 240.225,398.559 240.174,399.133 239.771 C 400.341 238.924,400.393 238.385,399.200 239.067 M259.200 244.000 C 258.887 244.440,258.690 244.800,258.764 244.800 C 258.837 244.800,259.153 244.440,259.467 244.000 C 259.780 243.560,259.976 243.200,259.903 243.200 C 259.830 243.200,259.513 243.560,259.200 244.000 M256.000 244.533 C 255.687 244.973,255.490 245.333,255.564 245.333 C 255.637 245.333,255.953 244.973,256.267 244.533 C 256.580 244.093,256.776 243.733,256.703 243.733 C 256.630 243.733,256.313 244.093,256.000 244.533 M255.810 248.600 C 254.654 250.111,254.044 251.013,254.272 250.875 C 254.587 250.685,256.358 248.267,256.183 248.267 C 256.118 248.267,255.951 248.417,255.810 248.600 M249.867 253.467 C 249.413 254.127,249.101 254.667,249.174 254.667 C 249.248 254.667,249.679 254.127,250.133 253.467 C 250.587 252.807,250.899 252.267,250.826 252.267 C 250.752 252.267,250.321 252.807,249.867 253.467 M27.776 253.563 C 27.606 254.131,27.475 254.761,27.485 254.964 C 27.495 255.167,27.683 254.751,27.902 254.039 C 28.120 253.326,28.251 252.696,28.192 252.637 C 28.134 252.578,27.946 252.995,27.776 253.563 M8.043 255.345 C 7.597 256.325,7.682 256.535,8.165 255.643 C 8.390 255.227,8.525 254.836,8.464 254.775 C 8.403 254.714,8.214 254.971,8.043 255.345 M372.995 257.210 C 372.448 257.582,372.000 257.943,372.000 258.013 C 372.000 258.084,372.480 257.823,373.067 257.435 C 373.998 256.819,374.313 256.533,374.062 256.533 C 374.023 256.533,373.543 256.838,372.995 257.210 M7.262 258.400 C 7.262 258.913,7.317 259.123,7.384 258.867 C 7.451 258.610,7.451 258.190,7.384 257.933 C 7.317 257.677,7.262 257.887,7.262 258.400 M26.734 260.133 C 26.737 260.720,26.791 260.929,26.855 260.597 C 26.919 260.265,26.917 259.785,26.850 259.530 C 26.783 259.275,26.731 259.547,26.734 260.133 M26.038 262.989 C 25.948 263.325,25.889 264.140,25.907 264.800 C 25.936 265.849,25.965 265.782,26.139 264.267 C 26.350 262.444,26.312 261.967,26.038 262.989 M240.496 269.267 C 239.729 270.193,239.404 270.667,239.536 270.667 C 239.610 270.667,239.990 270.247,240.382 269.733 C 241.109 268.781,241.196 268.421,240.496 269.267 M4.564 270.426 C 4.401 270.896,4.275 271.412,4.285 271.573 C 4.296 271.735,4.476 271.397,4.687 270.823 C 4.897 270.249,5.022 269.733,4.965 269.676 C 4.908 269.619,4.728 269.957,4.564 270.426 M341.000 271.886 C 340.003 272.427,340.064 272.652,341.067 272.133 C 341.507 271.906,341.867 271.663,341.867 271.593 C 341.867 271.422,341.838 271.431,341.000 271.886 M24.085 278.933 C 24.085 279.887,24.134 280.277,24.193 279.800 C 24.252 279.323,24.252 278.543,24.193 278.067 C 24.134 277.590,24.085 277.980,24.085 278.933 M2.976 279.067 C 2.949 279.653,2.864 280.433,2.789 280.800 L 2.652 281.467 2.938 280.810 C 3.096 280.448,3.180 279.668,3.126 279.076 L 3.027 278.000 2.976 279.067 M230.629 282.333 C 229.862 283.260,229.537 283.733,229.669 283.733 C 229.743 283.733,230.124 283.313,230.515 282.800 C 231.242 281.847,231.330 281.488,230.629 282.333 M23.558 284.133 C 23.559 285.307,23.606 285.753,23.662 285.126 C 23.719 284.499,23.718 283.539,23.661 282.993 C 23.603 282.447,23.557 282.960,23.558 284.133 M328.800 285.890 C 328.357 286.253,328.312 286.343,328.667 286.160 C 329.536 285.711,330.019 285.341,329.733 285.343 C 329.587 285.344,329.167 285.591,328.800 285.890 M225.344 288.555 C 223.575 291.030,223.032 292.130,224.112 291.050 C 224.863 290.299,227.870 286.244,227.388 286.633 C 226.874 287.047,226.762 286.678,227.253 286.187 C 227.429 286.011,227.504 285.867,227.419 285.867 C 227.335 285.867,226.401 287.077,225.344 288.555 M1.406 289.600 C 1.406 290.260,1.458 290.530,1.522 290.200 C 1.585 289.870,1.585 289.330,1.522 289.000 C 1.458 288.670,1.406 288.940,1.406 289.600 M23.023 294.933 C 23.023 296.033,23.070 296.483,23.128 295.933 C 23.185 295.383,23.185 294.483,23.128 293.933 C 23.070 293.383,23.023 293.833,23.023 294.933 M0.853 295.100 C 0.824 296.145,0.740 297.405,0.668 297.900 L 0.535 298.800 0.812 297.919 C 0.965 297.434,1.048 296.174,0.998 295.119 L 0.906 293.200 0.853 295.100 M22.729 297.867 C 22.729 298.380,22.783 298.590,22.850 298.333 C 22.918 298.077,22.918 297.657,22.850 297.400 C 22.783 297.143,22.729 297.353,22.729 297.867 M23.001 300.400 C 23.004 300.987,23.058 301.195,23.122 300.864 C 23.186 300.532,23.183 300.052,23.117 299.797 C 23.050 299.542,22.998 299.813,23.001 300.400 M22.729 302.933 C 22.729 303.447,22.783 303.657,22.850 303.400 C 22.918 303.143,22.918 302.723,22.850 302.467 C 22.783 302.210,22.729 302.420,22.729 302.933 M0.085 306.133 C 0.085 307.087,0.134 307.477,0.193 307.000 C 0.252 306.523,0.252 305.743,0.193 305.267 C 0.134 304.790,0.085 305.180,0.085 306.133 M0.067 310.533 C 0.070 311.120,0.125 311.329,0.189 310.997 C 0.252 310.665,0.250 310.185,0.183 309.930 C 0.116 309.675,0.064 309.947,0.067 310.533 M0.067 312.933 C 0.070 313.520,0.125 313.729,0.189 313.397 C 0.252 313.065,0.250 312.585,0.183 312.330 C 0.116 312.075,0.064 312.347,0.067 312.933 M23.245 313.200 C 23.241 313.493,23.341 313.973,23.467 314.267 C 23.759 314.946,23.759 314.245,23.467 313.333 C 23.295 312.797,23.252 312.771,23.245 313.200 M280.933 314.951 C 280.493 315.233,280.270 315.464,280.437 315.465 C 280.604 315.466,281.024 315.231,281.370 314.942 C 282.163 314.282,281.973 314.286,280.933 314.951 M0.080 317.600 C 0.080 318.407,0.130 318.737,0.191 318.333 C 0.252 317.930,0.252 317.270,0.191 316.867 C 0.130 316.463,0.080 316.793,0.080 317.600 M273.733 319.087 C 273.147 319.438,272.787 319.726,272.933 319.728 C 273.254 319.732,274.933 318.732,274.933 318.537 C 274.933 318.363,274.989 318.338,273.733 319.087 M0.601 321.733 C 0.604 322.320,0.658 322.529,0.722 322.197 C 0.786 321.865,0.783 321.385,0.717 321.130 C 0.650 320.875,0.598 321.147,0.601 321.733 M268.933 321.885 C 268.493 322.167,268.270 322.398,268.437 322.399 C 268.604 322.399,269.024 322.164,269.370 321.876 C 270.163 321.215,269.973 321.219,268.933 321.885 M24.867 323.333 C 24.870 323.920,24.925 324.129,24.989 323.797 C 25.052 323.465,25.050 322.985,24.983 322.730 C 24.916 322.475,24.864 322.747,24.867 323.333 M28.185 335.330 C 28.429 335.841,28.676 336.213,28.734 336.155 C 28.856 336.033,28.047 334.400,27.864 334.400 C 27.797 334.400,27.942 334.818,28.185 335.330 M2.467 335.600 C 2.470 336.187,2.525 336.395,2.589 336.064 C 2.652 335.732,2.650 335.252,2.583 334.997 C 2.516 334.742,2.464 335.013,2.467 335.600 M29.350 338.437 C 29.341 338.678,29.543 339.103,29.800 339.383 C 30.057 339.663,30.182 339.760,30.077 339.598 C 29.973 339.437,29.771 339.011,29.628 338.652 C 29.463 338.240,29.361 338.161,29.350 338.437 M235.067 340.407 C 234.480 340.768,234.106 341.065,234.235 341.065 C 234.508 341.067,236.267 340.011,236.267 339.845 C 236.267 339.676,236.214 339.700,235.067 340.407 M30.852 341.197 C 31.096 341.708,31.343 342.079,31.401 342.021 C 31.523 341.899,30.713 340.267,30.531 340.267 C 30.464 340.267,30.608 340.685,30.852 341.197 M3.912 341.733 C 4.114 343.052,4.268 343.276,4.263 342.244 C 4.260 341.817,4.144 341.287,4.003 341.067 C 3.830 340.794,3.801 341.007,3.912 341.733 M195.133 341.219 C 194.099 341.780,194.217 341.974,195.267 341.440 C 196.272 340.928,196.450 340.796,196.111 340.811 C 195.977 340.817,195.537 341.000,195.133 341.219 M31.477 342.480 C 31.456 342.909,32.229 344.149,32.839 344.665 L 33.467 345.196 32.899 344.531 C 32.587 344.166,32.142 343.507,31.910 343.067 C 31.678 342.627,31.483 342.363,31.477 342.480 M4.285 343.760 C 4.264 344.251,4.816 345.939,4.953 345.803 C 5.003 345.753,4.877 345.177,4.673 344.523 C 4.469 343.869,4.294 343.525,4.285 343.760 M5.067 346.235 C 5.067 346.522,5.860 348.000,6.014 348.000 C 6.087 348.000,5.949 347.610,5.706 347.133 C 5.211 346.160,5.067 345.957,5.067 346.235 M36.936 350.267 C 38.005 351.751,38.300 352.026,37.705 350.982 C 37.427 350.496,36.968 349.896,36.684 349.649 C 36.384 349.388,36.489 349.646,36.936 350.267 M7.200 352.102 C 7.200 352.388,7.993 353.867,8.147 353.867 C 8.220 353.867,8.082 353.477,7.840 353.000 C 7.345 352.027,7.200 351.824,7.200 352.102 M39.467 352.617 C 39.467 352.663,39.857 353.053,40.333 353.483 L 41.200 354.267 40.417 353.400 C 39.687 352.592,39.467 352.411,39.467 352.617 M45.125 357.209 C 45.524 357.628,45.898 357.918,45.957 357.853 C 46.015 357.787,45.689 357.444,45.232 357.090 L 44.400 356.446 45.125 357.209 M143.800 358.317 C 144.057 358.384,144.477 358.384,144.733 358.317 C 144.990 358.250,144.780 358.195,144.267 358.195 C 143.753 358.195,143.543 358.250,143.800 358.317 M11.120 359.945 C 11.382 360.429,11.951 361.149,12.386 361.545 L 13.176 362.267 12.388 361.327 C 11.955 360.810,11.385 360.090,11.122 359.727 C 10.661 359.091,10.661 359.099,11.120 359.945 M130.800 361.457 C 129.770 361.929,130.249 361.936,131.467 361.467 C 131.980 361.269,132.220 361.104,132.000 361.099 C 131.780 361.094,131.240 361.256,130.800 361.457 M54.400 361.720 C 54.400 361.793,54.760 362.039,55.200 362.267 C 55.640 362.494,56.000 362.620,56.000 362.547 C 56.000 362.474,55.640 362.228,55.200 362.000 C 54.760 361.772,54.400 361.646,54.400 361.720 M128.333 362.050 C 128.590 362.118,129.010 362.118,129.267 362.050 C 129.523 361.983,129.313 361.929,128.800 361.929 C 128.287 361.929,128.077 361.983,128.333 362.050 M123.533 363.117 C 123.790 363.184,124.210 363.184,124.467 363.117 C 124.723 363.050,124.513 362.995,124.000 362.995 C 123.487 362.995,123.277 363.050,123.533 363.117 M61.067 364.400 C 61.433 364.610,61.913 364.781,62.133 364.780 C 62.353 364.780,62.130 364.604,61.636 364.390 C 60.500 363.897,60.196 363.902,61.067 364.400 M117.800 364.188 C 118.130 364.252,118.670 364.252,119.000 364.188 C 119.330 364.125,119.060 364.073,118.400 364.073 C 117.740 364.073,117.470 364.125,117.800 364.188 M101.667 366.584 C 101.923 366.651,102.343 366.651,102.600 366.584 C 102.857 366.517,102.647 366.462,102.133 366.462 C 101.620 366.462,101.410 366.517,101.667 366.584 M16.400 367.733 C 16.973 368.320,17.502 368.800,17.575 368.800 C 17.648 368.800,17.240 368.320,16.667 367.733 C 16.094 367.147,15.565 366.667,15.492 366.667 C 15.418 366.667,15.827 367.147,16.400 367.733 M73.807 366.862 C 74.434 366.919,75.394 366.918,75.940 366.861 C 76.487 366.803,75.973 366.757,74.800 366.758 C 73.627 366.759,73.180 366.806,73.807 366.862 M95.800 367.117 C 96.057 367.184,96.477 367.184,96.733 367.117 C 96.990 367.050,96.780 366.995,96.267 366.995 C 95.753 366.995,95.543 367.050,95.800 367.117 M176.667 368.143 C 176.000 368.464,175.978 368.501,176.533 368.365 C 177.289 368.180,178.138 367.748,177.733 367.753 C 177.587 367.756,177.107 367.931,176.667 368.143 M20.667 372.800 C 21.389 373.533,22.040 374.133,22.113 374.133 C 22.187 374.133,21.656 373.533,20.933 372.800 C 20.211 372.067,19.560 371.467,19.487 371.467 C 19.413 371.467,19.944 372.067,20.667 372.800 M159.467 374.933 C 158.953 375.214,158.653 375.444,158.800 375.444 C 158.947 375.444,159.487 375.214,160.000 374.933 C 160.513 374.652,160.813 374.422,160.667 374.422 C 160.520 374.422,159.980 374.652,159.467 374.933 M25.308 377.151 C 25.721 377.669,27.733 379.312,27.733 379.131 C 27.733 379.068,27.103 378.491,26.333 377.849 C 25.563 377.207,25.102 376.893,25.308 377.151 M31.600 381.566 C 32.040 382.051,32.760 382.697,33.200 383.001 C 34.145 383.653,33.932 383.423,32.133 381.849 C 31.148 380.987,31.009 380.913,31.600 381.566 M112.200 388.988 C 112.530 389.052,113.070 389.052,113.400 388.988 C 113.730 388.925,113.460 388.873,112.800 388.873 C 112.140 388.873,111.870 388.925,112.200 388.988 M107.800 390.050 C 108.057 390.118,108.477 390.118,108.733 390.050 C 108.990 389.983,108.780 389.929,108.267 389.929 C 107.753 389.929,107.543 389.983,107.800 390.050 M54.200 390.850 C 54.457 390.918,54.877 390.918,55.133 390.850 C 55.390 390.783,55.180 390.729,54.667 390.729 C 54.153 390.729,53.943 390.783,54.200 390.850 M93.538 392.193 C 94.017 392.253,94.737 392.251,95.138 392.191 C 95.539 392.130,95.147 392.081,94.267 392.083 C 93.387 392.084,93.059 392.134,93.538 392.193 M67.537 392.991 C 67.942 393.053,68.542 393.051,68.870 392.988 C 69.198 392.924,68.867 392.874,68.133 392.876 C 67.400 392.878,67.132 392.930,67.537 392.991 " stroke="none" fill="#f7f7f7" fill-rule="evenodd"></path><path id="path1" d="M351.067 7.239 C 350.187 7.334,348.567 7.550,347.467 7.720 C 346.367 7.890,345.165 8.071,344.797 8.121 C 344.429 8.171,343.607 8.352,342.970 8.523 C 342.334 8.695,341.749 8.771,341.671 8.694 C 341.594 8.616,341.284 8.684,340.983 8.845 C 340.682 9.006,339.828 9.289,339.085 9.475 C 338.342 9.661,337.073 10.011,336.267 10.252 C 335.460 10.493,334.560 10.738,334.267 10.796 C 332.819 11.082,323.129 14.683,319.867 16.147 C 319.427 16.345,318.287 16.826,317.333 17.216 C 314.473 18.388,310.108 20.432,304.000 23.461 C 299.557 25.664,291.504 29.823,291.067 30.139 C 290.920 30.246,290.020 30.751,289.067 31.263 C 288.113 31.775,286.853 32.467,286.267 32.800 C 285.680 33.133,284.420 33.824,283.467 34.335 C 282.513 34.847,281.544 35.430,281.312 35.633 C 281.081 35.835,280.777 36.000,280.638 36.000 C 280.499 36.000,280.096 36.210,279.743 36.467 C 279.389 36.723,278.352 37.353,277.436 37.867 C 276.521 38.380,274.492 39.550,272.928 40.467 C 271.363 41.383,269.974 42.133,269.842 42.133 C 269.709 42.133,269.600 42.253,269.600 42.400 C 269.600 42.547,269.360 42.667,269.067 42.667 C 268.773 42.667,268.533 42.769,268.533 42.893 C 268.533 43.086,266.017 44.800,265.734 44.800 C 265.681 44.800,264.936 45.250,264.079 45.800 C 263.221 46.350,262.283 46.944,261.993 47.120 C 261.168 47.620,257.781 49.698,257.302 49.997 C 257.065 50.145,256.585 50.458,256.235 50.692 C 253.576 52.474,250.425 54.336,250.293 54.204 C 250.205 54.116,250.133 54.181,250.133 54.349 C 250.133 54.516,249.743 54.853,249.267 55.097 C 248.790 55.341,248.340 55.620,248.267 55.716 C 248.193 55.813,246.813 56.725,245.200 57.742 C 243.587 58.760,242.147 59.688,242.000 59.806 C 241.060 60.556,234.133 65.020,234.133 64.876 C 234.133 64.778,233.983 64.884,233.800 65.110 C 233.617 65.337,232.207 66.362,230.667 67.387 C 229.127 68.412,226.689 70.049,225.250 71.025 C 223.811 72.001,222.521 72.800,222.383 72.800 C 222.246 72.800,222.133 72.898,222.133 73.018 C 222.133 73.137,221.623 73.520,221.000 73.868 C 220.377 74.215,219.720 74.688,219.542 74.917 C 219.363 75.146,219.213 75.220,219.208 75.082 C 219.204 74.944,219.050 75.017,218.867 75.245 C 218.562 75.622,216.737 76.922,212.371 79.869 C 210.962 80.820,210.055 81.470,208.933 82.333 C 208.274 82.839,207.316 83.389,207.138 83.362 C 207.031 83.346,206.753 83.605,206.520 83.938 C 206.287 84.270,205.995 84.480,205.871 84.403 C 205.747 84.326,205.605 84.357,205.556 84.471 C 205.440 84.742,201.670 87.465,201.404 87.471 C 201.292 87.474,200.917 87.774,200.572 88.138 C 200.227 88.502,199.820 88.800,199.668 88.800 C 199.516 88.800,199.259 88.964,199.096 89.164 C 198.933 89.365,196.880 90.883,194.533 92.537 C 192.187 94.192,189.833 95.885,189.304 96.299 C 188.774 96.713,188.264 96.976,188.171 96.882 C 188.077 96.788,188.000 96.833,188.000 96.982 C 188.000 97.131,186.611 98.261,184.914 99.493 C 183.216 100.725,181.248 102.153,180.539 102.667 C 177.694 104.728,172.121 108.851,167.129 112.588 C 164.231 114.758,161.751 116.533,161.618 116.533 C 161.486 116.533,161.338 116.640,161.289 116.771 C 161.200 117.009,154.528 122.133,154.307 122.133 C 154.243 122.133,153.804 122.493,153.333 122.933 C 152.862 123.373,152.310 123.733,152.105 123.733 C 151.901 123.733,151.733 123.825,151.733 123.937 C 151.733 124.201,148.920 126.400,148.582 126.400 C 148.440 126.400,148.255 126.580,148.170 126.800 C 148.086 127.020,147.899 127.200,147.755 127.200 C 147.612 127.200,147.171 127.500,146.776 127.866 C 146.381 128.232,145.085 129.259,143.896 130.148 C 142.706 131.037,141.531 131.929,141.284 132.131 C 141.037 132.333,140.499 132.716,140.089 132.982 C 139.678 133.249,139.154 133.647,138.924 133.867 C 138.694 134.087,138.103 134.567,137.611 134.933 C 137.118 135.300,135.548 136.530,134.122 137.667 C 132.695 138.803,131.394 139.733,131.231 139.733 C 131.067 139.733,130.933 139.842,130.933 139.975 C 130.933 140.108,130.105 140.831,129.092 141.582 C 128.079 142.333,126.238 143.754,125.001 144.740 C 123.764 145.726,122.352 146.833,121.864 147.200 C 121.376 147.567,120.499 148.262,119.916 148.745 C 119.333 149.228,118.603 149.754,118.294 149.914 C 117.986 150.075,117.544 150.399,117.312 150.636 C 117.080 150.873,116.488 151.367,115.997 151.733 C 115.506 152.100,114.835 152.640,114.507 152.933 C 113.538 153.799,112.989 154.236,112.000 154.929 C 111.487 155.288,110.707 155.922,110.267 156.337 C 109.827 156.752,109.137 157.292,108.733 157.537 C 108.330 157.781,108.000 158.076,108.000 158.191 C 108.000 158.306,107.880 158.400,107.733 158.400 C 107.587 158.400,107.251 158.610,106.987 158.867 C 106.722 159.123,106.142 159.606,105.697 159.940 C 104.795 160.615,103.490 161.684,102.432 162.613 C 102.048 162.951,101.403 163.426,101.000 163.671 C 100.597 163.915,100.267 164.209,100.267 164.324 C 100.267 164.439,100.147 164.533,100.000 164.533 C 99.853 164.533,99.519 164.743,99.258 165.000 C 98.662 165.585,96.735 167.174,95.333 168.238 C 94.747 168.684,94.001 169.292,93.676 169.591 C 93.351 169.889,92.988 170.133,92.869 170.133 C 92.749 170.133,92.461 170.343,92.228 170.600 C 91.995 170.857,91.352 171.427,90.799 171.867 C 90.245 172.307,89.659 172.791,89.496 172.943 C 89.333 173.095,88.725 173.575,88.144 174.010 C 87.563 174.444,86.543 175.308,85.877 175.929 C 85.212 176.550,84.560 177.060,84.431 177.062 C 84.301 177.065,83.916 177.367,83.577 177.733 C 83.237 178.100,82.887 178.400,82.800 178.400 C 82.713 178.400,82.363 178.700,82.023 179.067 C 81.684 179.433,81.350 179.733,81.282 179.733 C 81.215 179.733,80.568 180.294,79.846 180.980 C 78.733 182.038,78.685 182.119,79.533 181.514 C 81.145 180.363,82.523 179.347,82.667 179.202 C 83.195 178.667,87.225 175.733,87.431 175.733 C 87.573 175.733,87.729 175.643,87.778 175.533 C 87.872 175.320,89.050 174.347,90.276 173.467 C 91.287 172.742,92.717 171.665,94.000 170.664 C 95.416 169.559,99.230 166.670,100.156 166.000 C 101.058 165.347,103.765 163.300,104.140 162.986 C 104.291 162.860,104.771 162.528,105.207 162.247 C 105.643 161.967,106.233 161.527,106.517 161.269 C 106.801 161.011,107.123 160.800,107.231 160.800 C 107.340 160.800,107.587 160.648,107.781 160.463 C 107.975 160.278,108.793 159.619,109.600 158.999 C 110.407 158.379,111.195 157.766,111.352 157.637 C 111.766 157.296,119.164 151.916,119.653 151.600 C 119.880 151.453,120.321 151.127,120.633 150.875 C 122.113 149.680,123.764 148.533,124.002 148.533 C 124.148 148.533,124.267 148.436,124.267 148.318 C 124.267 148.098,126.550 146.400,126.845 146.400 C 126.935 146.400,127.141 146.230,127.304 146.023 C 127.540 145.722,133.895 141.121,136.092 139.660 C 136.532 139.368,137.206 138.847,138.013 138.178 C 138.167 138.050,138.904 137.516,139.651 136.991 C 143.141 134.538,145.847 132.599,147.067 131.677 C 147.800 131.123,148.550 130.668,148.733 130.668 C 148.917 130.667,149.067 130.574,149.067 130.460 C 149.067 130.346,150.091 129.536,151.342 128.660 C 152.594 127.784,154.844 126.203,156.342 125.148 C 157.841 124.092,159.462 122.952,159.944 122.614 C 160.427 122.276,161.357 121.605,162.011 121.121 C 162.665 120.638,163.200 120.313,163.200 120.399 C 163.200 120.485,163.530 120.248,163.933 119.872 C 164.337 119.497,164.997 119.042,165.400 118.863 C 165.803 118.683,166.133 118.458,166.133 118.363 C 166.133 118.267,166.763 117.790,167.533 117.303 C 168.303 116.816,168.993 116.344,169.067 116.255 C 169.140 116.165,170.220 115.413,171.467 114.582 C 172.713 113.751,173.883 112.946,174.065 112.793 C 174.248 112.640,175.748 111.598,177.399 110.478 C 179.049 109.357,181.497 107.681,182.837 106.754 C 184.177 105.826,185.394 105.067,185.542 105.067 C 185.689 105.067,185.882 104.879,185.970 104.650 C 186.058 104.420,186.240 104.301,186.375 104.385 C 186.511 104.468,186.661 104.434,186.711 104.308 C 186.833 103.995,194.278 98.933,194.617 98.933 C 194.766 98.933,194.929 98.827,194.978 98.698 C 195.062 98.476,199.595 95.414,205.867 91.344 C 207.407 90.344,208.992 89.303,209.389 89.030 C 209.787 88.757,210.227 88.533,210.367 88.533 C 210.507 88.533,210.662 88.427,210.711 88.298 C 210.835 87.970,218.237 83.200,218.621 83.200 C 218.793 83.200,218.933 83.094,218.933 82.965 C 218.933 82.700,229.994 75.652,230.287 75.729 C 230.389 75.757,230.547 75.665,230.637 75.525 C 230.780 75.303,233.149 73.700,234.464 72.936 C 234.719 72.788,235.859 72.081,236.997 71.364 C 238.135 70.648,241.347 68.682,244.133 66.995 C 246.920 65.309,249.820 63.525,250.579 63.031 C 251.337 62.537,252.021 62.133,252.100 62.133 C 252.178 62.133,253.598 61.315,255.255 60.314 C 260.953 56.873,269.189 52.178,269.528 52.178 C 269.714 52.178,269.867 52.089,269.867 51.980 C 269.867 51.813,273.545 49.713,278.133 47.261 C 278.793 46.909,279.933 46.287,280.667 45.879 C 284.303 43.860,287.734 42.134,287.737 42.322 C 287.740 42.438,287.835 42.386,287.950 42.205 C 288.185 41.836,299.200 36.190,299.200 36.439 C 299.200 36.527,299.356 36.469,299.546 36.311 C 300.006 35.929,303.814 34.056,306.800 32.742 C 308.120 32.161,309.800 31.409,310.533 31.070 C 312.694 30.072,317.322 28.113,319.333 27.344 C 320.360 26.952,321.625 26.452,322.144 26.233 C 322.664 26.015,323.264 25.806,323.478 25.770 C 323.692 25.734,324.260 25.496,324.741 25.241 C 325.222 24.987,325.722 24.844,325.852 24.924 C 325.982 25.004,326.128 24.963,326.177 24.831 C 326.281 24.554,335.065 21.600,335.787 21.600 C 336.055 21.600,336.482 21.488,336.737 21.352 C 337.255 21.074,341.633 19.965,342.667 19.850 C 343.033 19.809,344.173 19.597,345.200 19.379 C 350.996 18.147,362.133 18.427,362.133 19.804 C 362.133 19.929,362.236 19.968,362.361 19.891 C 363.728 19.046,368.132 24.913,368.246 27.733 C 368.255 27.953,368.374 28.910,368.509 29.859 C 369.119 34.126,367.450 47.610,366.113 49.225 C 365.980 49.385,365.933 49.578,366.009 49.653 C 366.385 50.030,361.947 63.668,359.995 68.133 C 359.867 68.427,359.503 69.327,359.187 70.133 C 358.870 70.940,358.509 71.840,358.384 72.133 C 358.259 72.427,357.839 73.447,357.450 74.400 C 355.008 80.388,345.067 101.270,344.488 101.628 C 344.341 101.719,344.238 101.873,344.258 101.970 C 344.296 102.150,342.511 105.745,340.933 108.667 C 340.458 109.547,339.498 111.347,338.800 112.667 C 336.669 116.696,335.931 117.993,335.671 118.163 C 335.533 118.253,335.442 118.409,335.468 118.510 C 335.520 118.711,332.215 124.794,329.876 128.800 C 329.063 130.193,328.158 131.791,327.865 132.351 C 327.573 132.911,327.153 133.576,326.933 133.828 C 326.713 134.081,326.512 134.408,326.485 134.554 C 326.312 135.521,307.240 167.105,306.574 167.529 C 306.405 167.637,306.353 167.727,306.458 167.729 C 307.334 167.748,268.310 227.368,255.140 246.133 C 254.574 246.940,253.091 249.100,251.844 250.933 C 250.597 252.767,249.113 254.927,248.545 255.733 C 247.977 256.540,243.865 262.420,239.407 268.800 C 234.949 275.180,230.879 281.000,230.363 281.733 C 222.504 292.902,225.487 289.219,240.406 269.333 C 258.395 245.357,275.609 221.713,288.652 203.067 C 291.114 199.547,293.303 196.528,293.515 196.358 C 293.728 196.188,293.908 195.948,293.915 195.824 C 293.926 195.621,296.096 192.409,300.730 185.733 C 310.430 171.759,327.678 145.327,336.104 131.524 C 337.294 129.576,338.614 127.416,339.038 126.724 C 349.891 109.023,362.385 85.556,368.175 72.000 C 368.833 70.460,369.528 68.840,369.720 68.400 C 369.912 67.960,370.397 66.760,370.799 65.733 C 371.200 64.707,371.657 63.627,371.815 63.333 C 371.972 63.040,372.126 62.620,372.157 62.400 C 372.188 62.180,372.469 61.340,372.783 60.533 C 373.531 58.607,375.200 53.655,375.200 53.362 C 375.200 53.235,375.404 52.667,375.653 52.099 C 375.902 51.531,376.129 50.827,376.158 50.533 C 376.188 50.240,376.568 48.560,377.003 46.800 C 377.439 45.040,377.924 42.940,378.082 42.133 C 378.570 39.639,378.892 37.751,378.899 37.333 C 378.904 37.113,378.979 35.433,379.067 33.600 C 379.205 30.712,379.116 29.187,378.548 24.776 C 378.266 22.584,375.831 17.092,374.377 15.371 C 372.945 13.674,370.536 11.457,369.630 11.002 C 369.100 10.735,368.349 10.305,367.960 10.045 C 367.127 9.489,364.840 8.591,363.333 8.229 C 362.747 8.088,361.787 7.840,361.200 7.679 C 359.478 7.206,353.701 6.955,351.067 7.239 M117.655 20.867 C 113.405 27.117,92.399 62.885,85.197 76.133 C 84.639 77.160,83.681 78.900,83.067 80.000 C 82.453 81.100,81.526 82.780,81.007 83.733 C 80.488 84.687,79.767 86.007,79.405 86.667 C 79.042 87.327,78.112 89.067,77.337 90.533 C 76.563 92.000,75.721 93.560,75.466 94.000 C 75.212 94.440,74.311 96.120,73.465 97.733 C 72.619 99.347,71.480 101.507,70.935 102.533 C 67.144 109.665,56.254 131.262,52.984 138.133 C 49.820 144.781,48.835 146.873,48.025 148.667 C 47.562 149.693,47.064 150.745,46.920 151.003 C 46.776 151.262,45.867 153.242,44.899 155.403 C 43.932 157.565,42.951 159.693,42.718 160.133 C 42.486 160.573,42.273 161.053,42.244 161.200 C 42.216 161.347,41.681 162.607,41.055 164.000 C 40.430 165.393,39.627 167.193,39.272 168.000 C 38.916 168.807,38.462 169.827,38.262 170.267 C 38.062 170.707,37.637 171.697,37.316 172.467 C 36.996 173.237,36.655 173.867,36.557 173.867 C 36.460 173.867,36.362 174.105,36.340 174.396 C 36.301 174.922,35.427 177.070,34.228 179.586 C 33.883 180.311,33.600 181.097,33.600 181.332 C 33.600 181.568,33.487 181.874,33.348 182.013 C 33.070 182.293,31.635 185.663,31.082 187.333 C 30.888 187.920,30.451 189.000,30.112 189.733 C 29.773 190.467,29.468 191.187,29.435 191.333 C 29.369 191.624,28.554 193.667,27.562 196.033 C 27.216 196.858,26.933 197.666,26.933 197.829 C 26.933 197.992,26.587 198.840,26.163 199.715 C 25.740 200.589,25.456 201.367,25.533 201.444 C 25.609 201.521,25.484 201.870,25.254 202.221 C 25.025 202.572,24.640 203.535,24.399 204.363 C 24.159 205.190,23.782 206.046,23.562 206.266 C 23.342 206.487,23.219 206.667,23.290 206.667 C 23.461 206.667,22.580 209.461,21.988 210.800 C 21.728 211.387,21.482 212.146,21.441 212.487 C 21.399 212.828,21.243 213.255,21.093 213.435 C 20.943 213.616,20.647 214.417,20.435 215.215 C 20.223 216.014,19.801 217.207,19.497 217.867 C 19.194 218.527,18.942 219.283,18.939 219.547 C 18.936 219.811,18.753 220.374,18.533 220.800 C 18.314 221.225,17.954 222.209,17.735 222.987 C 17.162 225.022,16.019 228.465,15.436 229.916 C 15.159 230.603,14.933 231.374,14.933 231.629 C 14.933 231.883,14.644 232.821,14.289 233.712 C 13.935 234.604,13.588 235.693,13.519 236.133 C 13.449 236.573,13.200 237.413,12.964 238.000 C 12.729 238.587,12.421 239.607,12.280 240.267 C 12.140 240.927,11.793 242.187,11.509 243.067 C 11.225 243.947,10.850 245.207,10.677 245.867 C 9.854 248.995,9.541 250.128,9.058 251.733 C 8.771 252.687,8.483 253.887,8.417 254.400 C 8.352 254.913,8.125 255.873,7.912 256.533 C 7.700 257.193,7.401 258.333,7.249 259.067 C 7.098 259.800,6.782 261.150,6.548 262.066 C 6.314 262.982,6.071 264.062,6.007 264.466 C 5.943 264.870,5.702 265.920,5.472 266.800 C 5.241 267.680,5.006 268.880,4.950 269.467 C 4.895 270.053,4.734 270.833,4.593 271.200 C 4.453 271.567,4.251 272.587,4.145 273.467 C 4.039 274.347,3.782 275.722,3.576 276.523 C 3.369 277.324,3.200 278.411,3.200 278.939 C 3.200 279.467,2.949 280.892,2.642 282.106 C 2.335 283.320,2.148 284.560,2.227 284.861 C 2.305 285.162,2.203 286.082,2.000 286.904 C 1.631 288.396,1.566 289.000,1.122 295.088 C 0.993 296.860,0.798 298.455,0.688 298.633 C 0.578 298.810,0.426 301.741,0.351 305.145 C 0.190 312.427,0.186 311.134,0.387 316.400 C 0.477 318.747,0.579 321.747,0.614 323.067 C 0.648 324.387,0.776 325.624,0.897 325.815 C 1.018 326.007,1.224 327.400,1.356 328.911 C 1.487 330.422,1.835 332.439,2.130 333.393 C 2.425 334.347,2.650 335.594,2.631 336.164 C 2.612 336.734,2.919 338.100,3.314 339.200 C 3.709 340.300,4.145 341.902,4.282 342.759 C 4.420 343.617,4.843 345.057,5.222 345.959 C 6.186 348.256,6.546 349.246,7.033 350.941 C 7.266 351.751,7.892 353.131,8.425 354.007 C 8.957 354.883,9.623 356.260,9.905 357.066 C 10.445 358.613,11.392 360.223,12.414 361.333 C 12.751 361.700,13.483 362.900,14.038 364.000 C 14.654 365.218,15.662 366.625,16.616 367.600 C 17.478 368.480,18.574 369.800,19.053 370.533 C 19.531 371.267,20.601 372.467,21.430 373.200 C 22.259 373.933,24.005 375.569,25.310 376.835 C 26.808 378.288,28.254 379.415,29.233 379.895 C 30.086 380.312,31.366 381.170,32.076 381.801 C 33.831 383.359,35.018 384.076,37.067 384.813 C 38.020 385.156,39.413 385.839,40.162 386.331 C 41.715 387.351,44.814 388.518,46.000 388.530 C 46.440 388.535,47.460 388.852,48.267 389.235 C 50.237 390.170,53.187 390.923,54.223 390.756 C 54.749 390.671,55.619 390.839,56.533 391.202 C 58.294 391.901,58.955 392.016,61.733 392.113 C 62.907 392.153,64.382 392.331,65.011 392.507 C 66.464 392.913,75.583 393.258,77.733 392.988 C 78.320 392.914,79.439 392.956,80.220 393.081 C 81.105 393.222,82.212 393.200,83.154 393.023 C 83.986 392.866,85.987 392.711,87.600 392.680 C 89.213 392.648,90.871 392.482,91.284 392.311 C 91.697 392.140,92.897 391.998,93.951 391.996 C 95.004 391.994,96.587 391.828,97.467 391.627 C 98.347 391.426,99.995 391.183,101.131 391.087 C 102.266 390.990,103.646 390.754,104.197 390.561 C 104.749 390.368,106.099 390.123,107.197 390.016 C 108.295 389.909,109.855 389.603,110.664 389.336 C 111.472 389.068,112.883 388.780,113.798 388.696 C 114.714 388.611,115.914 388.349,116.465 388.113 C 117.016 387.877,117.947 387.640,118.533 387.587 C 120.511 387.407,121.195 387.250,122.533 386.668 C 123.267 386.348,124.407 386.028,125.067 385.955 C 125.727 385.882,126.927 385.587,127.733 385.299 C 128.540 385.011,130.183 384.548,131.384 384.270 C 132.585 383.991,133.942 383.570,134.399 383.334 C 134.856 383.098,135.554 382.863,135.951 382.813 C 137.189 382.656,139.021 382.099,140.085 381.557 C 140.647 381.270,141.248 381.083,141.420 381.140 C 141.763 381.255,144.195 380.455,145.403 379.831 C 145.820 379.615,146.605 379.382,147.147 379.313 C 147.690 379.244,148.886 378.835,149.807 378.404 C 150.727 377.974,151.927 377.539,152.474 377.437 C 153.020 377.336,154.007 377.011,154.667 376.715 C 155.327 376.419,155.927 376.165,156.000 376.151 C 156.073 376.137,156.283 376.030,156.467 375.914 C 156.650 375.797,156.912 375.771,157.048 375.855 C 157.185 375.940,157.372 375.887,157.464 375.738 C 157.556 375.589,157.790 375.467,157.984 375.467 C 158.177 375.467,159.040 375.139,159.901 374.738 C 160.762 374.338,161.759 373.983,162.116 373.951 C 162.474 373.918,163.554 373.502,164.516 373.027 C 165.479 372.551,166.447 372.143,166.667 372.119 C 167.171 372.064,169.368 371.191,169.766 370.887 C 169.930 370.761,170.710 370.470,171.499 370.240 C 172.288 370.010,173.337 369.588,173.830 369.302 C 174.323 369.016,175.569 368.488,176.598 368.129 C 177.626 367.769,178.603 367.369,178.767 367.240 C 178.932 367.110,179.787 366.740,180.667 366.418 C 181.547 366.096,182.635 365.616,183.085 365.353 C 183.535 365.090,184.555 364.659,185.352 364.396 C 186.148 364.133,187.239 363.641,187.775 363.304 C 188.311 362.967,189.032 362.654,189.377 362.608 C 189.722 362.561,190.664 362.152,191.469 361.697 C 192.274 361.243,193.319 360.787,193.791 360.683 C 194.263 360.580,195.078 360.204,195.603 359.847 C 196.128 359.491,196.705 359.200,196.886 359.200 C 197.067 359.200,198.141 358.726,199.274 358.147 C 200.407 357.568,201.333 357.147,201.333 357.213 C 201.333 357.279,202.233 356.853,203.333 356.267 C 204.433 355.680,205.333 355.261,205.333 355.335 C 205.333 355.409,206.362 354.927,207.619 354.264 C 208.876 353.601,210.016 353.128,210.152 353.212 C 210.289 353.296,210.400 353.254,210.400 353.119 C 210.400 352.868,213.584 351.200,214.063 351.200 C 214.209 351.200,214.643 350.952,215.028 350.650 C 215.413 350.347,216.045 350.041,216.433 349.971 C 216.821 349.901,217.632 349.509,218.236 349.101 C 218.839 348.692,219.873 348.147,220.533 347.890 C 221.193 347.633,221.927 347.248,222.163 347.036 C 222.400 346.824,222.838 346.603,223.137 346.545 C 223.436 346.488,224.074 346.222,224.555 345.954 C 225.035 345.686,226.817 344.747,228.514 343.866 C 230.211 342.986,232.048 341.988,232.595 341.648 C 233.142 341.308,233.702 341.098,233.839 341.183 C 233.976 341.267,234.128 341.222,234.177 341.082 C 234.262 340.841,236.179 339.782,240.400 337.644 C 241.427 337.124,242.332 336.604,242.412 336.489 C 242.491 336.374,242.795 336.244,243.088 336.199 C 243.380 336.155,243.974 335.870,244.409 335.567 C 244.844 335.264,246.520 334.319,248.133 333.466 C 249.747 332.614,251.367 331.756,251.733 331.560 C 252.100 331.364,252.550 331.203,252.733 331.202 C 252.917 331.201,253.067 331.100,253.067 330.979 C 253.067 330.857,254.357 330.056,255.933 329.199 C 257.510 328.342,259.220 327.405,259.733 327.116 C 260.247 326.828,261.447 326.164,262.400 325.641 C 263.353 325.118,264.661 324.359,265.306 323.953 C 265.950 323.548,266.580 323.280,266.706 323.357 C 266.831 323.435,266.933 323.378,266.933 323.230 C 266.933 323.083,268.223 322.274,269.800 321.433 C 271.377 320.592,272.727 319.822,272.800 319.724 C 272.873 319.625,273.876 319.017,275.027 318.372 C 276.179 317.727,277.559 316.947,278.094 316.638 C 278.629 316.329,280.267 315.399,281.733 314.570 C 283.200 313.741,284.580 312.946,284.800 312.803 C 286.354 311.791,290.018 309.638,291.467 308.885 C 291.980 308.618,292.460 308.336,292.533 308.258 C 292.837 307.934,302.366 302.214,303.467 301.694 C 303.687 301.591,303.927 301.436,304.000 301.350 C 304.353 300.939,306.436 299.733,306.794 299.733 C 307.017 299.733,307.200 299.635,307.200 299.516 C 307.200 299.396,307.710 299.015,308.333 298.669 C 308.957 298.323,309.527 297.971,309.600 297.887 C 309.745 297.720,310.604 297.214,311.866 296.553 C 312.306 296.322,312.726 296.073,312.800 295.999 C 312.873 295.926,313.413 295.563,314.000 295.193 C 315.160 294.461,315.410 294.310,317.600 293.020 C 318.407 292.545,319.187 292.055,319.333 291.931 C 319.952 291.410,323.584 289.207,323.691 289.289 C 323.755 289.339,323.880 289.272,323.970 289.142 C 324.185 288.831,329.558 285.333,329.822 285.333 C 329.933 285.333,330.259 285.148,330.546 284.921 C 331.082 284.496,334.765 282.105,337.908 280.142 C 338.150 279.991,339.565 279.087,341.052 278.133 C 346.270 274.788,347.337 274.119,347.733 273.947 C 347.953 273.851,348.193 273.694,348.267 273.599 C 348.565 273.213,351.734 271.196,351.737 271.390 C 351.740 271.506,351.830 271.478,351.937 271.328 C 352.195 270.971,357.474 267.415,358.643 266.811 C 359.143 266.553,359.862 266.055,360.240 265.704 C 360.618 265.354,361.071 265.067,361.245 265.067 C 361.419 265.067,361.720 264.913,361.914 264.724 C 362.390 264.262,370.826 258.667,371.048 258.667 C 371.144 258.667,371.538 258.375,371.923 258.018 C 372.308 257.661,373.052 257.151,373.578 256.885 C 374.103 256.618,374.593 256.323,374.667 256.228 C 374.934 255.884,378.884 253.333,379.149 253.333 C 379.299 253.333,379.462 253.239,379.511 253.123 C 379.589 252.939,380.446 252.316,382.562 250.907 C 382.870 250.702,384.950 249.303,387.182 247.800 C 389.414 246.297,391.300 245.067,391.373 245.067 C 391.445 245.067,391.661 244.917,391.853 244.733 C 392.229 244.373,392.391 244.259,394.800 242.657 C 395.680 242.072,396.640 241.410,396.933 241.187 C 397.227 240.965,397.803 240.533,398.214 240.227 C 399.834 239.025,398.778 239.389,396.133 240.944 C 395.547 241.289,394.647 241.782,394.133 242.039 C 393.620 242.295,393.140 242.578,393.067 242.668 C 392.901 242.869,389.070 245.067,388.884 245.067 C 388.810 245.067,388.430 245.293,388.041 245.569 C 386.906 246.374,380.308 250.133,380.031 250.133 C 379.892 250.133,379.738 250.230,379.689 250.349 C 379.609 250.542,378.775 251.045,375.733 252.733 C 375.220 253.018,373.660 253.894,372.267 254.680 C 370.873 255.466,369.687 256.074,369.630 256.032 C 369.573 255.989,369.453 256.062,369.363 256.193 C 369.273 256.324,368.660 256.737,368.000 257.111 C 360.875 261.145,358.476 262.471,355.467 264.037 C 354.660 264.457,353.788 264.948,353.529 265.129 C 353.270 265.309,352.710 265.639,352.284 265.862 C 351.859 266.085,350.571 266.796,349.422 267.442 C 348.273 268.089,346.673 268.975,345.867 269.411 C 345.060 269.847,344.269 270.307,344.109 270.433 C 343.949 270.559,343.739 270.583,343.642 270.487 C 343.546 270.390,343.467 270.424,343.467 270.562 C 343.467 270.699,342.417 271.349,341.134 272.006 C 339.850 272.663,338.740 273.272,338.667 273.359 C 338.509 273.547,332.096 276.979,329.600 278.211 C 328.647 278.682,327.738 279.187,327.580 279.333 C 327.423 279.480,326.643 279.899,325.847 280.264 C 325.051 280.629,324.340 280.989,324.267 281.064 C 324.129 281.204,322.712 281.956,317.867 284.458 C 316.327 285.253,314.953 286.015,314.813 286.152 C 314.674 286.288,314.353 286.400,314.099 286.400 C 313.846 286.400,313.465 286.573,313.254 286.784 C 312.884 287.154,311.691 287.788,305.446 290.933 C 303.844 291.740,302.473 292.465,302.400 292.545 C 302.327 292.624,297.789 294.938,292.317 297.686 C 286.844 300.434,282.164 302.792,281.917 302.925 C 279.973 303.972,274.400 306.632,274.400 306.513 C 274.400 306.431,274.070 306.595,273.667 306.879 C 273.041 307.318,270.542 308.567,270.133 308.644 C 270.060 308.658,268.740 309.292,267.200 310.052 C 262.340 312.450,256.965 314.995,256.669 315.039 C 256.512 315.062,255.823 315.409,255.137 315.811 C 254.452 316.213,253.796 316.513,253.679 316.478 C 253.562 316.443,252.927 316.732,252.267 317.120 C 251.607 317.507,250.827 317.864,250.533 317.912 C 250.240 317.960,249.850 318.141,249.667 318.314 C 249.484 318.487,248.704 318.866,247.934 319.157 C 247.163 319.448,245.573 320.160,244.400 320.739 C 243.227 321.318,241.790 321.947,241.207 322.136 C 240.625 322.326,239.986 322.642,239.788 322.840 C 239.590 323.038,239.245 323.200,239.020 323.200 C 238.796 323.200,238.054 323.493,237.373 323.850 C 235.194 324.993,232.580 326.133,232.139 326.133 C 231.904 326.133,231.387 326.371,230.989 326.662 C 230.592 326.953,230.027 327.230,229.733 327.277 C 229.259 327.354,228.345 327.754,224.400 329.605 C 223.813 329.880,222.993 330.176,222.578 330.263 C 222.162 330.350,221.355 330.716,220.783 331.077 C 220.212 331.438,219.592 331.736,219.405 331.739 C 219.219 331.742,218.527 332.002,217.867 332.317 C 217.207 332.631,216.607 332.909,216.533 332.934 C 215.792 333.188,215.148 333.457,214.133 333.939 C 213.473 334.252,212.752 334.526,212.530 334.548 C 212.309 334.570,211.469 334.899,210.664 335.280 C 208.566 336.271,205.905 337.330,204.667 337.666 C 204.080 337.825,203.321 338.135,202.980 338.355 C 202.639 338.574,201.619 339.021,200.714 339.348 C 197.268 340.592,195.571 341.257,194.741 341.691 C 194.269 341.937,193.789 342.118,193.675 342.094 C 193.435 342.042,192.960 342.219,190.968 343.100 C 190.180 343.448,189.340 343.736,189.101 343.739 C 188.862 343.742,188.127 344.002,187.467 344.317 C 186.807 344.631,186.207 344.901,186.133 344.917 C 185.099 345.143,183.215 345.766,182.800 346.019 C 182.507 346.198,181.550 346.549,180.675 346.797 C 179.799 347.046,178.617 347.486,178.049 347.776 C 177.480 348.067,176.959 348.248,176.890 348.179 C 176.821 348.110,176.023 348.351,175.116 348.714 C 174.209 349.077,173.287 349.416,173.067 349.467 C 172.847 349.518,172.607 349.583,172.533 349.611 C 172.460 349.640,172.318 349.652,172.218 349.638 C 172.118 349.624,171.623 349.785,171.119 349.995 C 170.614 350.206,170.126 350.304,170.034 350.212 C 169.942 350.120,169.867 350.170,169.867 350.323 C 169.867 350.650,168.969 351.002,166.933 351.474 C 166.127 351.660,165.197 351.989,164.867 352.204 C 164.537 352.419,164.267 352.506,164.267 352.398 C 164.267 352.290,164.117 352.324,163.933 352.473 C 163.750 352.622,163.172 352.801,162.650 352.870 C 162.127 352.938,161.437 353.135,161.116 353.307 C 160.796 353.478,160.531 353.525,160.529 353.409 C 160.527 353.294,160.423 353.361,160.298 353.558 C 160.174 353.755,159.605 353.976,159.036 354.049 C 158.466 354.123,157.280 354.467,156.400 354.814 C 155.520 355.160,154.260 355.528,153.600 355.630 C 152.940 355.733,151.878 356.039,151.240 356.310 C 150.602 356.582,149.263 356.974,148.264 357.183 C 147.266 357.391,146.108 357.737,145.691 357.952 C 145.274 358.167,144.333 358.385,143.600 358.438 C 142.867 358.490,142.202 358.620,142.122 358.726 C 142.042 358.832,141.142 359.112,140.122 359.348 C 139.102 359.584,137.487 360.013,136.533 360.302 C 135.580 360.590,134.320 360.865,133.733 360.913 C 133.147 360.961,132.327 361.136,131.912 361.301 C 130.935 361.692,129.213 362.085,127.867 362.226 C 127.280 362.287,126.260 362.518,125.600 362.739 C 124.940 362.961,123.708 363.216,122.862 363.307 C 122.016 363.398,120.816 363.649,120.196 363.866 C 119.575 364.082,118.582 364.261,117.989 364.263 C 117.397 364.265,116.197 364.459,115.323 364.694 C 114.449 364.928,113.065 365.151,112.248 365.189 C 111.432 365.226,110.172 365.390,109.448 365.553 C 108.725 365.716,107.290 365.889,106.260 365.938 C 105.230 365.987,104.215 366.134,104.004 366.264 C 103.793 366.394,102.596 366.523,101.344 366.550 C 100.091 366.577,98.527 366.720,97.867 366.867 C 97.207 367.014,95.614 367.105,94.328 367.069 C 93.041 367.033,91.931 367.095,91.861 367.208 C 91.741 367.404,83.991 367.339,81.733 367.124 C 81.147 367.068,80.441 367.101,80.165 367.197 C 79.888 367.293,79.108 367.271,78.431 367.149 C 77.754 367.027,76.335 366.935,75.277 366.944 C 73.619 366.959,72.402 366.765,70.667 366.211 C 70.447 366.141,69.499 366.029,68.562 365.963 C 67.624 365.896,66.424 365.658,65.895 365.432 C 65.004 365.053,64.378 364.924,62.267 364.681 C 61.827 364.630,60.747 364.279,59.867 363.901 C 58.987 363.522,58.005 363.210,57.686 363.206 C 57.367 363.203,56.287 362.773,55.286 362.251 C 54.285 361.730,52.791 361.081,51.966 360.810 C 51.140 360.539,49.980 359.965,49.387 359.536 C 48.794 359.107,47.729 358.540,47.021 358.276 C 46.313 358.012,45.433 357.525,45.067 357.194 C 44.700 356.862,43.740 356.172,42.933 355.661 C 42.127 355.149,41.227 354.459,40.933 354.127 C 40.640 353.794,39.822 353.062,39.115 352.499 C 38.408 351.936,37.299 350.754,36.649 349.871 C 35.999 348.989,35.358 348.267,35.224 348.267 C 35.089 348.267,34.553 347.505,34.033 346.574 C 33.512 345.643,32.889 344.718,32.648 344.518 C 32.408 344.318,31.759 343.177,31.206 341.981 C 30.654 340.785,30.074 339.728,29.918 339.632 C 29.763 339.536,29.437 338.774,29.194 337.940 C 28.951 337.105,28.464 335.852,28.110 335.154 C 27.756 334.456,27.464 333.670,27.461 333.409 C 27.458 333.147,27.148 332.093,26.771 331.067 C 26.395 330.040,26.052 328.780,26.010 328.267 C 25.968 327.753,25.868 327.153,25.788 326.933 C 25.270 325.518,24.825 323.653,24.687 322.325 C 24.599 321.476,24.413 320.276,24.274 319.658 C 23.908 318.031,23.458 314.333,23.327 311.867 C 23.264 310.693,23.138 308.413,23.047 306.800 C 22.868 303.608,22.851 302.615,22.941 300.428 C 22.973 299.637,22.934 298.883,22.853 298.752 C 22.772 298.621,22.822 296.718,22.964 294.524 C 23.107 292.329,23.279 288.739,23.347 286.546 C 23.416 284.353,23.590 282.133,23.734 281.613 C 23.879 281.092,23.998 280.006,23.999 279.198 C 23.999 278.391,24.128 277.311,24.284 276.798 C 24.441 276.286,24.613 274.909,24.667 273.739 C 24.722 272.551,24.892 271.569,25.051 271.516 C 25.208 271.464,25.288 271.341,25.229 271.244 C 25.170 271.146,25.234 270.107,25.371 268.933 C 26.101 262.683,26.097 262.712,27.206 257.637 C 27.475 256.411,27.632 255.245,27.556 255.047 C 27.479 254.849,27.600 254.112,27.824 253.410 C 28.047 252.708,28.311 251.593,28.410 250.933 C 28.508 250.273,28.765 249.073,28.980 248.267 C 29.195 247.460,29.409 246.440,29.454 246.000 C 29.500 245.560,29.672 244.660,29.838 244.000 C 30.003 243.340,30.326 242.020,30.556 241.067 C 30.785 240.113,31.033 239.093,31.107 238.800 C 31.180 238.507,31.281 237.882,31.331 237.412 C 31.380 236.942,31.492 236.442,31.578 236.301 C 31.665 236.161,31.907 235.226,32.116 234.223 C 32.325 233.220,32.693 231.680,32.935 230.800 C 33.177 229.920,33.541 228.540,33.744 227.733 C 34.623 224.247,35.248 221.916,35.616 220.751 C 35.832 220.063,36.124 218.983,36.263 218.351 C 36.708 216.325,37.532 213.507,38.092 212.096 C 38.391 211.342,38.567 210.655,38.482 210.571 C 38.397 210.486,38.586 209.816,38.901 209.082 C 39.217 208.348,39.521 207.414,39.577 207.007 C 39.670 206.334,40.059 205.032,40.475 204.000 C 40.564 203.780,40.649 203.480,40.665 203.333 C 40.681 203.187,40.926 202.407,41.210 201.600 C 41.494 200.793,41.734 200.013,41.744 199.867 C 41.753 199.720,41.989 198.940,42.269 198.133 C 42.548 197.327,42.755 196.585,42.728 196.486 C 42.701 196.386,42.950 195.666,43.281 194.886 C 43.612 194.105,43.883 193.347,43.883 193.200 C 43.883 192.799,44.797 189.911,45.396 188.417 C 45.687 187.692,45.963 186.852,46.010 186.550 C 46.123 185.823,46.923 183.511,47.362 182.645 C 47.554 182.266,47.827 181.486,47.971 180.912 C 48.234 179.853,48.966 177.643,49.376 176.667 C 49.500 176.373,49.771 175.593,49.978 174.933 C 50.186 174.273,50.673 172.893,51.062 171.867 C 51.450 170.840,51.895 169.550,52.050 169.000 C 52.205 168.450,52.457 168.000,52.610 168.000 C 52.763 168.000,52.819 167.930,52.733 167.844 C 52.568 167.679,52.781 166.917,53.660 164.533 C 53.957 163.727,54.356 162.647,54.545 162.133 C 54.735 161.620,55.133 160.540,55.429 159.733 C 55.726 158.927,56.386 157.187,56.896 155.867 C 57.984 153.050,59.533 149.006,60.319 146.933 C 60.624 146.127,61.031 145.107,61.222 144.667 C 61.413 144.227,62.005 142.727,62.537 141.333 C 63.070 139.940,63.753 138.200,64.054 137.467 C 64.931 135.336,65.008 135.144,65.606 133.600 C 65.918 132.793,66.331 131.773,66.523 131.333 C 66.714 130.893,67.239 129.633,67.689 128.533 C 68.924 125.513,76.702 107.165,77.433 105.548 C 77.785 104.770,78.527 103.053,79.081 101.733 C 79.636 100.413,80.174 99.213,80.277 99.067 C 80.380 98.920,81.037 97.450,81.737 95.800 C 82.437 94.150,83.092 92.800,83.194 92.800 C 83.295 92.800,83.378 92.644,83.378 92.453 C 83.378 91.649,100.432 55.111,101.011 54.676 C 101.115 54.597,101.240 54.353,101.289 54.133 C 101.383 53.706,112.533 31.355,113.993 28.667 C 116.062 24.856,118.680 19.733,118.558 19.733 C 118.485 19.733,118.079 20.243,117.655 20.867 M179.977 144.912 C 179.914 144.975,179.143 145.096,178.264 145.179 C 176.106 145.385,174.981 145.549,174.346 145.751 C 174.053 145.843,173.525 145.965,173.173 146.020 C 171.551 146.274,169.079 146.877,168.400 147.184 C 168.107 147.317,167.542 147.495,167.145 147.581 C 166.552 147.710,165.804 147.975,164.800 148.414 C 164.727 148.446,164.401 148.558,164.076 148.665 C 162.677 149.121,158.385 151.183,156.667 152.223 C 152.951 154.474,152.019 155.077,151.347 155.667 C 150.970 155.997,150.570 156.267,150.457 156.267 C 150.344 156.267,150.078 156.507,149.867 156.800 C 149.655 157.093,149.390 157.333,149.276 157.333 C 148.935 157.333,147.772 158.382,144.543 161.603 C 141.286 164.852,140.920 165.262,139.484 167.267 C 138.985 167.963,138.477 168.533,138.355 168.533 C 138.233 168.533,138.133 168.650,138.133 168.793 C 138.133 168.935,137.443 170.128,136.600 171.444 C 133.907 175.645,133.522 176.311,133.139 177.434 C 132.932 178.038,132.651 178.647,132.515 178.787 C 132.378 178.926,132.267 179.193,132.267 179.379 C 132.267 179.566,131.987 180.352,131.646 181.126 C 131.117 182.326,130.291 184.548,130.032 185.467 C 129.990 185.613,129.795 186.273,129.598 186.933 C 129.401 187.593,129.262 188.228,129.290 188.344 C 129.318 188.460,129.227 188.767,129.088 189.027 C 128.949 189.287,128.761 190.143,128.672 190.929 C 128.582 191.715,128.443 192.463,128.364 192.591 C 128.285 192.719,128.176 193.268,128.121 193.812 C 127.676 198.224,127.600 199.435,127.600 202.133 C 127.600 205.790,127.921 209.816,128.380 211.912 C 128.564 212.752,128.802 213.988,128.936 214.800 C 128.985 215.093,129.091 215.573,129.171 215.867 C 129.252 216.160,129.423 216.823,129.551 217.340 C 129.679 217.857,130.040 218.967,130.355 219.807 C 130.669 220.646,130.874 221.333,130.811 221.333 C 130.748 221.333,131.000 222.023,131.371 222.867 C 131.742 223.710,132.204 224.760,132.397 225.200 C 133.917 228.660,134.613 229.933,136.919 233.467 C 140.817 239.443,144.833 243.780,150.400 248.028 C 151.353 248.755,152.373 249.536,152.667 249.762 C 152.960 249.989,153.620 250.409,154.133 250.695 C 154.647 250.982,155.667 251.576,156.400 252.016 C 157.133 252.456,158.513 253.191,159.467 253.649 C 160.420 254.107,161.620 254.689,162.133 254.942 C 163.943 255.835,168.536 257.369,171.288 257.999 C 171.556 258.061,171.976 258.173,172.221 258.248 C 172.466 258.323,173.189 258.449,173.827 258.527 C 174.465 258.605,175.079 258.725,175.190 258.794 C 176.732 259.747,193.073 259.785,194.603 258.839 C 194.728 258.762,195.403 258.630,196.103 258.546 C 198.817 258.220,205.528 256.173,208.238 254.844 C 212.872 252.572,217.447 249.914,218.849 248.678 C 219.023 248.525,219.653 248.047,220.249 247.616 C 220.845 247.184,221.333 246.734,221.333 246.616 C 221.333 246.497,221.444 246.400,221.578 246.400 C 222.271 246.400,229.333 239.380,229.333 238.692 C 229.333 238.556,229.423 238.404,229.533 238.356 C 230.085 238.111,234.375 231.917,235.414 229.867 C 235.599 229.500,236.045 228.720,236.405 228.133 C 236.764 227.547,237.060 226.857,237.062 226.600 C 237.065 226.343,237.187 226.133,237.333 226.133 C 237.480 226.133,237.581 226.043,237.558 225.933 C 237.534 225.823,237.606 225.493,237.718 225.200 C 237.829 224.907,238.195 223.947,238.531 223.067 C 239.819 219.696,240.494 217.695,240.689 216.667 C 240.913 215.488,240.974 215.232,241.054 215.133 C 241.139 215.027,241.358 214.060,241.462 213.333 C 241.514 212.967,241.636 212.187,241.733 211.600 C 241.830 211.013,241.953 210.173,242.005 209.733 C 242.057 209.293,242.116 208.933,242.137 208.933 C 242.288 208.933,242.518 204.874,242.522 202.133 C 242.528 198.610,242.277 195.679,241.702 192.533 C 241.608 192.020,241.479 191.300,241.416 190.933 C 241.352 190.567,241.269 190.087,241.230 189.867 C 241.192 189.647,241.075 189.206,240.969 188.888 C 240.864 188.570,240.716 188.030,240.640 187.688 C 240.319 186.238,240.136 185.678,238.875 182.267 C 237.815 179.397,236.473 176.399,235.533 174.800 C 233.216 170.859,230.560 166.927,230.069 166.711 C 229.958 166.662,229.867 166.496,229.867 166.342 C 229.867 166.187,229.567 165.783,229.200 165.443 C 228.833 165.103,228.533 164.741,228.533 164.639 C 228.533 164.363,222.911 158.877,221.703 157.975 C 221.133 157.549,220.536 157.080,220.377 156.933 C 220.218 156.787,219.756 156.427,219.351 156.133 C 218.946 155.840,218.116 155.211,217.507 154.736 C 216.898 154.261,216.250 153.871,216.067 153.869 C 215.883 153.868,215.733 153.740,215.733 153.584 C 215.733 153.429,215.613 153.376,215.467 153.467 C 215.320 153.557,215.200 153.523,215.200 153.391 C 215.200 153.041,210.657 150.606,207.867 149.460 C 206.547 148.918,205.273 148.377,205.035 148.257 C 204.798 148.137,204.078 147.890,203.435 147.708 C 202.793 147.526,202.147 147.340,202.000 147.295 C 200.471 146.825,198.698 146.336,198.267 146.266 C 196.872 146.040,195.894 145.833,195.722 145.727 C 195.618 145.662,194.948 145.533,194.233 145.439 C 193.518 145.345,192.573 145.217,192.133 145.153 C 190.994 144.990,180.115 144.773,179.977 144.912 M182.533 150.017 C 167.622 153.137,158.321 157.724,149.857 166.132 C 130.323 185.538,129.938 221.197,149.094 236.955 C 152.327 239.615,152.596 239.881,151.200 239.041 C 135.799 229.769,128.269 205.832,134.267 185.215 C 139.469 167.333,157.418 153.306,179.467 149.889 C 188.618 148.471,189.703 148.517,182.533 150.017 M161.861 177.351 C 176.467 179.721,174.025 201.761,159.271 200.732 C 144.273 199.687,144.798 178.868,159.867 177.102 C 160.013 177.085,160.911 177.197,161.861 177.351 " stroke="none" fill="#040404" fill-rule="evenodd"></path></g></svg>